<svg xmlns="http://www.w3.org/2000/svg" width="25.092" height="26.632" viewBox="0 0 25.092 26.632">
  <path id="iconfinder_09.Handbag_290141" d="M24.4,27.232H5.294A2.294,2.294,0,0,1,3,24.938L5.294,11.175a2.464,2.464,0,0,1,2.8-2.294H9.611C10.476,4.9,11.751,2,14.846,2s4.37,2.9,5.235,6.881H21.6a2.464,2.464,0,0,1,2.8,2.294l2.294,13.763A2.294,2.294,0,0,1,24.4,27.232ZM14.846,3.147c-2.5,0-3.27,2.4-4.058,5.734H18.9C18.116,5.543,17.342,3.147,14.846,3.147Zm8.405,8.028a1.241,1.241,0,0,0-1.359-1.147H20.271a13.73,13.73,0,0,1,.114,1.72.573.573,0,0,1-1.147,0,12.758,12.758,0,0,0-.115-1.72H10.57a12.853,12.853,0,0,0-.115,1.72.573.573,0,1,1-1.147,0,13.84,13.84,0,0,1,.113-1.72H7.8a1.241,1.241,0,0,0-1.359,1.147L4.147,24.938a1.147,1.147,0,0,0,1.147,1.147H24.4a1.147,1.147,0,0,0,1.147-1.147Z" transform="translate(-2.3 -1.3)" fill="#383838" stroke="#383838" stroke-width="1.4" fill-rule="evenodd"/>
</svg>
